<?xml version="1.0" standalone="no"?>
<!DOCTYPE svg PUBLIC "-//W3C//DTD SVG 20010904//EN"
 "http://www.w3.org/TR/2001/REC-SVG-20010904/DTD/svg10.dtd">
<svg version="1.0" xmlns="http://www.w3.org/2000/svg"
 width="637.000000pt" height="550.000000pt" viewBox="0 0 637.000000 550.000000"
 preserveAspectRatio="xMidYMid meet">
<metadata>
Created by potrace 1.15, written by Peter Selinger 2001-2017
</metadata>
<g transform="translate(0.000000,550.000000) scale(0.100000,-0.100000)"
fill="#000000" stroke="none">
<path d="M0 2750 l0 -2750 3185 0 3185 0 0 2750 0 2750 -3185 0 -3185 0 0
-2750z m5918 731 c128 -27 235 -51 237 -53 2 -2 -3 -102 -10 -223 -8 -121 -15
-236 -15 -255 0 -34 -10 -45 -151 -170 -83 -74 -147 -136 -142 -137 4 -1 66
-11 137 -22 70 -11 130 -22 132 -24 6 -6 -29 -566 -36 -577 -5 -8 -304 33
-407 55 -16 4 -58 76 -183 312 -90 170 -169 319 -177 333 -14 24 -6 43 158
385 94 198 178 375 185 393 8 17 20 32 27 32 6 -1 117 -23 245 -49z m-4968
-496 l0 -485 210 0 210 0 0 -25 0 -25 -227 2 -228 3 -3 495 c-1 272 0 501 3
508 2 6 11 12 20 12 13 0 15 -56 15 -485z m750 -25 c0 -447 -2 -510 -15 -510
-13 0 -15 63 -15 510 0 447 2 510 15 510 13 0 15 -63 15 -510z m707 495 c65
-19 133 -92 159 -168 29 -83 24 -207 -11 -285 -25 -57 -82 -123 -115 -134 -9
-3 11 -61 70 -199 45 -106 85 -200 88 -207 3 -10 -2 -13 -18 -10 -18 2 -35 34
-104 198 l-83 195 -144 0 -144 0 -1 -30 c0 -16 -1 -105 -2 -197 -2 -142 -4
-168 -17 -168 -13 0 -15 63 -15 510 l0 510 143 0 c99 0 159 -5 194 -15z m993
-10 l0 -24 -127 -3 -128 -3 -3 -482 c-2 -419 -4 -483 -17 -483 -13 0 -15 64
-17 483 l-3 482 -127 3 c-116 2 -128 4 -128 21 0 10 3 21 7 24 3 4 127 7 275
7 l268 0 0 -25z m785 0 c0 -19 -8 -20 -230 -25 l-230 -5 0 -215 0 -215 213 -3
212 -2 0 -26 0 -25 -202 1 c-112 0 -209 1 -216 0 -10 0 -12 -46 -10 -212 l3
-213 233 -3 232 -2 0 -25 0 -25 -250 0 -250 0 0 510 0 510 248 -2 c239 -3 247
-4 247 -23z m624 -432 c135 -248 249 -455 254 -459 4 -4 7 200 7 454 0 404 2
462 15 462 13 0 15 -63 15 -511 0 -459 -2 -510 -16 -507 -9 2 -120 196 -262
456 -135 248 -249 452 -252 452 -3 0 -5 -204 -5 -452 0 -423 -1 -453 -17 -456
-17 -3 -18 26 -18 508 0 472 1 511 17 508 10 -2 109 -174 262 -455z m-857
-830 l3 -108 108 -3 107 -3 0 111 0 110 30 0 30 0 0 -245 0 -245 -30 0 -30 0
0 105 0 105 -110 0 -110 0 0 -105 0 -105 -30 0 -30 0 0 238 c0 131 3 242 7
245 3 4 17 7 29 7 23 0 23 -3 26 -107z m508 -44 c0 -170 11 -231 48 -259 35
-28 102 -27 130 3 36 38 42 73 42 243 l0 164 30 0 30 0 0 -162 c-1 -218 -11
-258 -84 -312 -40 -30 -130 -29 -174 3 -63 44 -75 86 -80 273 -2 92 -2 174 1
182 4 9 18 16 32 16 l25 0 0 -151z m665 137 c60 -25 88 -125 50 -182 -16 -25
-16 -27 3 -47 45 -50 54 -108 28 -172 -25 -59 -64 -75 -188 -75 l-108 0 0 245
0 245 90 0 c56 0 104 -5 125 -14z"/>
<path d="M5530 3168 c-84 -178 -159 -335 -167 -350 -7 -16 -12 -28 -9 -28 7 0
741 600 744 609 2 6 -382 92 -409 91 -3 0 -75 -145 -159 -322z"/>
<path d="M5990 3284 c-63 -53 -227 -186 -363 -297 -136 -111 -243 -203 -238
-205 13 -4 684 139 695 149 5 4 15 99 22 211 16 248 16 238 7 237 -5 0 -60
-43 -123 -95z"/>
<path d="M5703 2827 c-182 -39 -330 -73 -328 -75 2 -2 95 -26 206 -53 l202
-48 133 121 c74 66 134 122 134 124 0 6 16 9 -347 -69z"/>
<path d="M5498 2587 c70 -68 219 -212 332 -320 l205 -196 6 32 c9 46 32 457
26 463 -3 3 -72 16 -154 29 -81 13 -234 44 -339 69 -105 25 -194 46 -197 46
-4 0 51 -56 121 -123z"/>
<path d="M5403 2608 c19 -35 85 -160 147 -278 62 -118 114 -216 115 -217 3 -5
320 -54 333 -51 8 2 -102 115 -259 265 -151 143 -292 280 -314 302 -21 23 -43
41 -48 41 -5 0 7 -28 26 -62z"/>
<path d="M2107 3413 c-3 -5 -4 -120 -3 -258 l1 -250 142 -3 c170 -3 205 9 253
85 97 152 38 382 -107 422 -43 12 -280 15 -286 4z"/>
<path d="M4970 2155 l0 -65 63 0 c73 0 97 17 97 68 0 48 -22 62 -96 62 l-64 0
0 -65z"/>
<path d="M4970 1939 l0 -81 76 4 c65 3 79 7 95 27 25 31 25 85 -1 111 -16 16
-33 20 -95 20 l-75 0 0 -81z"/>
</g>
</svg>
